<svg width="20" height="19" viewBox="0 0 20 19" fill="none" xmlns="http://www.w3.org/2000/svg">
<path d="M16.5 4.50639H15V3.00639C14.9993 2.39732 14.8133 1.80288 14.4666 1.3021C14.1199 0.801329 13.6289 0.417947 13.0591 0.202927C12.4892 -0.0120936 11.8674 -0.0485657 11.2763 0.0983596C10.6852 0.245285 10.1529 0.568647 9.75 1.02545C9.36605 0.590286 8.86413 0.27582 8.30506 0.120166C7.74599 -0.0354884 7.15378 -0.0256471 6.60019 0.148497C6.0466 0.32264 5.55541 0.65361 5.18613 1.1013C4.81686 1.54898 4.58536 2.09416 4.51969 2.67077C4.06405 2.40307 3.54578 2.26048 3.01733 2.25743C2.48888 2.25437 1.969 2.39097 1.5103 2.65338C1.0516 2.91579 0.670357 3.29472 0.405147 3.75181C0.139937 4.2089 0.000173446 4.72793 0 5.25639V9.00639C0 11.5923 1.02723 14.0722 2.85571 15.9007C4.68419 17.7292 7.16414 18.7564 9.75 18.7564C12.3359 18.7564 14.8158 17.7292 16.6443 15.9007C18.4728 14.0722 19.5 11.5923 19.5 9.00639V7.50639C19.5 6.71074 19.1839 5.94768 18.6213 5.38507C18.0587 4.82246 17.2956 4.50639 16.5 4.50639ZM12 1.50639C12.3978 1.50639 12.7794 1.66443 13.0607 1.94573C13.342 2.22704 13.5 2.60857 13.5 3.00639V4.50639H10.5V3.00639C10.5 2.60857 10.658 2.22704 10.9393 1.94573C11.2206 1.66443 11.6022 1.50639 12 1.50639ZM6 3.00639C6 2.60857 6.15804 2.22704 6.43934 1.94573C6.72064 1.66443 7.10218 1.50639 7.5 1.50639C7.89782 1.50639 8.27936 1.66443 8.56066 1.94573C8.84196 2.22704 9 2.60857 9 3.00639V6.75639C9 7.15422 8.84196 7.53575 8.56066 7.81705C8.27936 8.09836 7.89782 8.25639 7.5 8.25639C7.10218 8.25639 6.72064 8.09836 6.43934 7.81705C6.15804 7.53575 6 7.15422 6 6.75639V3.00639ZM1.5 5.25639C1.5 4.85857 1.65804 4.47704 1.93934 4.19573C2.22064 3.91443 2.60218 3.75639 3 3.75639C3.39782 3.75639 3.77936 3.91443 4.06066 4.19573C4.34196 4.47704 4.5 4.85857 4.5 5.25639V6.75639C4.5 7.15422 4.34196 7.53575 4.06066 7.81705C3.77936 8.09836 3.39782 8.25639 3 8.25639C2.60218 8.25639 2.22064 8.09836 1.93934 7.81705C1.65804 7.53575 1.5 7.15422 1.5 6.75639V5.25639ZM18 9.00639C18 11.164 17.1547 13.2357 15.6454 14.7774C14.1361 16.3192 12.0829 17.2084 9.92582 17.2544C7.76875 17.3004 5.6795 16.4995 4.10587 15.0234C2.53224 13.5474 1.59948 11.5136 1.5075 9.35796C2.10699 9.70274 2.80737 9.82932 3.48961 9.71618C4.17186 9.60304 4.79389 9.25717 5.25 8.73733C5.76689 9.3263 6.49413 9.6891 7.27555 9.74782C8.05697 9.80654 8.83027 9.5565 9.42937 9.05139C9.69918 9.49854 10.0803 9.86807 10.5356 10.1239C10.0531 10.5454 9.66636 11.0654 9.40149 11.6488C9.13661 12.2323 8.99972 12.8656 9 13.5064C9 13.7053 9.07902 13.8961 9.21967 14.0367C9.36032 14.1774 9.55109 14.2564 9.75 14.2564C9.94891 14.2564 10.1397 14.1774 10.2803 14.0367C10.421 13.8961 10.5 13.7053 10.5 13.5064C10.5 12.7107 10.8161 11.9477 11.3787 11.3851C11.9413 10.8225 12.7044 10.5064 13.5 10.5064C13.6989 10.5064 13.8897 10.4274 14.0303 10.2867C14.171 10.1461 14.25 9.95531 14.25 9.75639C14.25 9.55748 14.171 9.36671 14.0303 9.22606C13.8897 9.08541 13.6989 9.00639 13.5 9.00639H12C11.6022 9.00639 11.2206 8.84836 10.9393 8.56705C10.658 8.28575 10.5 7.90422 10.5 7.50639V6.00639H16.5C16.8978 6.00639 17.2794 6.16443 17.5607 6.44573C17.842 6.72704 18 7.10857 18 7.50639V9.00639Z" fill="#E71214"/>
</svg>
